# xmcd
#
# Track frame offsets:
#	150
#	10418
#	22962
#	32461
#	44035
#	52284
#	60018
#	67549
#	78475
#	92760
#	101588
#	110911
#	118714
#	126447
#	134995
#	145257
#	151137
#	158473
#	167488
#
# Disc length: 2327 seconds
#
# Revision: 0
# Processed by: cddbd v1.5.2PL0 Copyright (c) Steve Scherf et al.
# Submitted via: dBpowerAMP V4.0
#
DISCID=fc091513
DTITLE=B.A. Johnston - Call Me When Old and Fat is the New Young and Sexy
DYEAR=1900
DGENRE=alt. country
TTITLE0=CHUD LOVE
TTITLE1=I AM A ROBOCOP
TTITLE2=KISS HER YOU LOSER
TTITLE3=SLEEPIN WITH MY WALKMAN
TTITLE4=THIS GREYHOUND SHALL KILL ME
TTITLE5=ROBOT WORLD
TTITLE6=MR. BELVEDERE REACH FOR YOUR DREAMS
TTITLE7=PAUL HOGAN
TTITLE8=YOUR ROOMATES A COUCHETARD
TTITLE9=OSKEE WEE WEE
TTITLE10=LIES I TELL MYSELF
TTITLE11=THE DORSET FIRE TOWER SHALL LOVE ME
TTITLE12=I SHALL RETIRE TODAY
TTITLE13=I WILL BE A SKID DAD
TTITLE14=THE FART THAT GOT AWAY
TTITLE15=PIFALLIN FOR YOU
TTITLE16=YOU ARE CUTE WHEN YOU SLEEP
TTITLE17=COOPER LAKE ROAD 
TTITLE18=I LOVE THIS DYING TOWN
EXTD=
EXTT0=
EXTT1=
EXTT2=
EXTT3=
EXTT4=
EXTT5=
EXTT6=
EXTT7=
EXTT8=
EXTT9=
EXTT10=
EXTT11=
EXTT12=
EXTT13=
EXTT14=
EXTT15=
EXTT16=
EXTT17=
EXTT18=
PLAYORDER=
